<svg width="59" height="59" viewBox="0 0 59 59" fill="none" xmlns="http://www.w3.org/2000/svg">
<circle cx="29.2834" cy="29.2834" r="25.5" transform="rotate(9.29357 29.2834 29.2834)" fill="#497569"/>
<path fill-rule="evenodd" clip-rule="evenodd" d="M19.1588 32.2569C17.3014 30.5821 18.003 27.5179 20.405 26.8178L33.9175 22.8777C36.5053 22.1223 38.8077 24.7152 37.7515 27.1955L32.2415 40.1479C31.2622 42.4503 28.1374 42.7838 26.6932 40.742L24.015 36.956L30.4798 31.2156C30.691 31.028 30.8191 30.7643 30.8358 30.4823C30.8525 30.2004 30.7566 29.9233 30.569 29.7121C30.3815 29.5009 30.1177 29.3728 29.8358 29.3561C29.5538 29.3394 29.2768 29.4353 29.0656 29.6229L22.6016 35.3626L19.1596 32.2562L19.1588 32.2569Z" fill="white"/>
</svg>
